<svg width="446" height="276" viewBox="0 0 446 276" fill="none" xmlns="http://www.w3.org/2000/svg">
<mask id="mask0_5_1123" style="mask-type:alpha" maskUnits="userSpaceOnUse" x="0" y="0" width="446" height="276">
<rect width="445.528" height="276" fill="#0E5FA8"/>
</mask>
<g mask="url(#mask0_5_1123)">
<path d="M474.367 313.885L520.207 245.657L464.006 109.395L418.166 177.623L474.367 313.885Z" fill="#F5F5F5" fill-opacity="0.2"/>
<path d="M270.77 177.096L316.61 108.868L464.006 109.395L418.166 177.623L270.77 177.096Z" fill="#F5F5F5" fill-opacity="0.2"/>
<path d="M405.482 416.413L451.322 348.185L395.121 211.923L349.281 280.151L405.482 416.413Z" fill="#F5F5F5" fill-opacity="0.2"/>
<path d="M201.885 279.624L247.726 211.396L395.122 211.923L349.281 280.151L201.885 279.624Z" fill="#F5F5F5" fill-opacity="0.2"/>
<path d="M133 382.152L178.84 313.924L326.236 314.451L280.396 382.68L133 382.152Z" fill="#F5F5F5" fill-opacity="0.2"/>
<path d="M314.367 52.8853L360.207 -15.3433L304.006 -151.605L258.166 -83.3767L314.367 52.8853Z" fill="#F5F5F5" fill-opacity="0.2"/>
<path d="M245.482 155.413L291.322 87.1847L235.121 -49.0773L189.281 19.1513L245.482 155.413Z" fill="#F5F5F5" fill-opacity="0.2"/>
<path d="M41.8853 18.6242L87.7256 -49.6044L235.122 -49.0772L189.281 19.1514L41.8853 18.6242Z" fill="#F5F5F5" fill-opacity="0.2"/>
<path d="M176.597 257.942L222.437 189.713L166.236 53.451L120.396 121.68L176.597 257.942Z" fill="#F5F5F5" fill-opacity="0.2"/>
<path d="M-27 121.152L18.8404 52.9238L166.236 53.451L120.396 121.68L-27 121.152Z" fill="#F5F5F5" fill-opacity="0.2"/>
</g>
</svg>
