<svg width="65" height="64" viewBox="0 0 65 64" fill="none" xmlns="http://www.w3.org/2000/svg">
<path d="M63.9951 62.9951H11.0069V60.963H12.9674V58.9988H12.3281C9.94654 58.9988 7.565 58.9988 5.18468 58.9988C3.26174 58.9915 2 57.7395 2 55.8226C2 49.9506 2 44.0787 2 38.2067C2 36.2328 3.20108 35.0172 5.20773 34.999C7.51284 34.9784 9.80823 34.999 12.1085 34.999H28.4565C30.8684 34.999 32.0209 36.1467 32.0209 38.544V43.2962L40.9902 41.173C40.9902 40.6198 41.0121 40.0581 40.9769 39.5C40.9672 39.3302 40.8252 39.1494 40.7039 39.0087C40.2975 38.5343 39.8037 38.1206 39.4761 37.6001C39.1728 37.1148 38.8295 36.9935 38.2981 37.002C34.9229 37.093 32.7792 34.3815 33.0303 31.636C33.0958 30.9178 33.4537 30.2274 33.6685 29.5213C33.7813 29.1489 33.9427 28.7728 33.9633 28.3918C34.0616 26.5623 33.9063 24.6915 34.2326 22.9069C35.1316 17.9983 38.1076 14.7784 42.8937 13.4317C49.5664 11.5573 56.4817 15.8521 57.7459 22.6521C58.0856 24.472 57.9254 26.3888 58.0383 28.2572C58.0616 28.7285 58.1857 29.1894 58.4022 29.6087C60.1347 32.763 57.974 36.7666 54.3719 36.9426C53.4014 36.9899 52.6104 37.1209 52.1712 38.0793C52.1189 38.1658 52.0543 38.2443 51.9795 38.3123C50.9276 39.4976 50.9276 39.4964 51.072 41.1949C52.4539 41.5176 53.8624 41.8439 55.26 42.1739C56.4939 42.4639 57.7447 42.6944 58.953 43.0644C61.6512 43.8918 63.2878 45.7335 63.886 48.4911C63.917 48.6066 63.9551 48.72 64 48.8308L63.9951 62.9951ZM21.0074 56.929C21.2403 56.9412 21.415 56.9569 21.591 56.9569C23.9519 56.9569 26.3124 56.9569 28.6725 56.9569C29.6649 56.9569 29.9767 56.6463 29.9767 55.6624C29.9767 49.8924 29.9767 44.122 29.9767 38.3511C29.9767 37.3393 29.6576 37.0069 28.6421 37.0056C20.8776 37.0056 13.1098 37.0056 5.33876 37.0056C4.35242 37.0056 4.0382 37.332 4.0382 38.3111C4.0382 44.1021 4.0382 49.8928 4.0382 55.6831C4.0382 56.6779 4.32694 56.9557 5.34968 56.9569C7.69037 56.9569 10.0311 56.9569 12.3718 56.9569C12.5647 56.9569 12.7588 56.9339 13.0014 56.9193C13.0014 56.3709 12.9893 55.8699 13.0014 55.37C13.0148 54.9478 13.0014 54.5135 13.1033 54.1095C13.6262 52.0143 15.4618 50.7647 17.5837 51.0231C19.5091 51.256 20.9807 53.0079 21.0062 55.0922C21.0135 55.6964 21.0074 56.2969 21.0074 56.929ZM40.0014 25.0082V26.9421C41.7266 27.0027 43.0866 26.3427 44.3399 25.2436C44.7403 25.673 45.1115 26.0443 45.45 26.4434C45.6696 26.7031 45.8952 26.7589 46.184 26.5975L48.466 25.3285C48.6844 25.5796 48.9986 25.8951 49.2583 26.2505C49.6113 26.7358 50.0044 26.7819 50.4933 26.481C50.7675 26.3136 51.0938 26.2178 51.3365 26.0176C51.6471 25.7628 51.897 25.434 52.2828 25.0203H54.0262C54.0262 25.5602 54.0056 26.0613 54.0371 26.5599C54.048 26.7188 54.1681 26.9772 54.2797 27.0064C54.833 27.1447 55.4032 27.2211 55.9855 27.323C55.9855 26.4932 56.0098 25.667 55.977 24.842C55.9515 24.2781 55.8871 23.7167 55.7841 23.1617C55.0647 19.1702 51.9128 15.9867 47.9092 15.1909C43.9056 14.395 39.7176 16.2427 37.5326 19.7101C36.0427 22.0734 35.8826 24.6636 36.0524 27.3279L37.9802 26.9299V25.0082H40.0014ZM54.9919 60.9326V50.0137H57.018V60.9205H61.9327C61.9448 60.7907 61.963 60.6936 61.9618 60.5978C61.9618 56.8866 61.9764 53.1753 61.94 49.4653C61.9218 47.5485 60.5775 45.668 58.7395 45.1233C56.836 44.5591 54.8839 44.1636 52.9027 43.6807C52.5024 45.6656 52.1129 47.5885 51.7102 49.5854L49.5142 48.2982C49.3638 49.1475 49.0848 49.9312 49.1175 50.7028C49.2109 52.8745 49.4281 55.0425 49.6028 57.2105C49.7047 58.448 49.8273 59.683 49.9413 60.9314L54.9919 60.9326ZM36.9854 60.912H42.0578C42.309 58.0003 42.554 55.1274 42.804 52.2569C42.918 50.9527 43.1109 49.6425 42.3126 48.3989L40.2405 49.6121C39.902 47.5921 39.5805 45.6741 39.2505 43.7074C39.043 43.7402 38.8683 43.7596 38.6972 43.7972C37.5204 44.0617 36.3351 44.2971 35.1704 44.6089C34.2642 44.8515 33.3834 45.1912 32.4929 45.4945C32.084 45.634 32.0076 45.9422 32.0076 46.3498C32.0234 49.4969 32.0161 52.6452 32.0161 55.7922C32.0161 57.0722 31.4811 58.0367 30.3491 58.6663C30.2011 58.7501 30.024 58.9381 30.0143 59.0873C29.9767 59.6842 29.9985 60.286 29.9985 60.9072H34.9727V50.0137H36.9757L36.9854 60.912ZM42.8586 28.7328L42.8792 28.6029L40.016 29.0955C40.016 30.2978 40.0439 31.5074 40.0099 32.7145C39.9044 36.4949 43.1861 39.4624 46.8998 38.9019C48.2343 38.7005 49.3626 38.1145 50.4096 37.0008H46.0032V35.0087H51.6349C52.2755 32.7036 51.8776 30.3985 52.0171 27.9794C50.6516 28.7391 49.096 29.0891 47.5367 28.9875C47.2941 28.9754 47.0514 28.7898 46.8355 28.6927C45.7436 28.7934 44.6104 28.9123 43.4737 28.9863C43.2747 28.9997 43.0636 28.825 42.8586 28.7364V28.7328ZM44.9295 51.0243C44.6529 54.3534 44.3824 57.6278 44.1094 60.9181H47.891C47.6119 57.5975 47.3377 54.3194 47.0611 51.0243H44.9295ZM18.9522 60.9411C18.9522 58.818 18.9862 56.7458 18.9364 54.6749C18.917 53.8365 18.0872 53.1268 17.2452 53.0492C15.9398 52.9278 15.0469 53.748 15.0263 55.1529C15.0008 56.9472 15.019 58.7416 15.0263 60.5359C15.038 60.6726 15.0608 60.8081 15.0942 60.9411H18.9522ZM38.0457 34.9699V29.0579C36.2587 29.121 35.0782 30.3488 35.0297 31.9587C34.9872 33.3794 36.1519 35.0123 38.0457 34.9699ZM53.9388 34.959C55.6774 35.0633 57.1369 33.491 56.9719 31.71C56.8263 30.1668 55.3838 28.8965 53.9388 29.1622V34.959ZM21.0608 59.0315V60.9326H27.9506V59.0303L21.0608 59.0315ZM48.927 40.4694C46.9859 41.1779 45.0448 41.1803 42.952 40.4257C43.0551 40.9049 43.0066 41.4205 43.2347 41.6183C44.1106 42.3778 45.0751 43.0341 46.0056 43.7281C46.8197 43.1215 47.5634 42.4942 48.3738 41.9725C48.9586 41.588 49.1018 41.1306 48.9222 40.4645L48.927 40.4694ZM44.1846 47.2864C44.2331 47.4611 44.2671 47.5958 44.3059 47.7268C44.7123 48.9704 44.7136 48.9704 46.0044 48.9704C47.328 48.9704 47.339 48.9703 47.6908 47.6613C47.7051 47.5583 47.6947 47.4534 47.6603 47.3553C47.6259 47.2571 47.5686 47.1686 47.493 47.0971C46.0918 46.1157 46.0857 46.1266 44.6371 47.0025C44.4964 47.0814 44.3617 47.1675 44.1798 47.2816L44.1846 47.2864ZM50.2858 46.3826C50.5006 45.3064 50.7032 44.2995 50.9264 43.187C50.6013 43.187 50.2871 43.0887 50.1172 43.204C49.3492 43.7244 48.6213 44.3068 47.8255 44.9024L50.2858 46.3826ZM41.2134 43.1069C41.4148 44.2946 41.5847 45.2907 41.7667 46.3535L44.1822 44.9061C43.4276 44.3383 42.7348 43.7911 42.0105 43.2889C41.8273 43.1615 41.5507 43.1773 41.2086 43.1045L41.2134 43.1069Z" fill="#0E5FA8"/>
<path d="M19.5577 0.999908C20.3014 1.1552 21.0548 1.27652 21.7888 1.47063C27.5309 2.99443 31.4569 6.58068 33.2318 12.2161C35.014 17.8793 33.8384 23.0852 29.9452 27.6032C27.6474 30.2723 24.7284 31.9914 21.2817 32.6502C15.5711 33.7421 10.5896 32.2244 6.48046 28.0727C4.34521 25.9169 2.92939 23.323 2.36404 20.3434C1.15082 13.8854 3.12593 8.53396 8.20444 4.37628C10.4829 2.51036 13.1483 1.46942 16.0733 1.12123C16.1883 1.09339 16.2998 1.05269 16.4058 0.999908L19.5577 0.999908ZM31.9822 17.007C32.0174 9.34802 25.756 3.07571 18.0375 3.03689C10.3385 2.99928 4.09529 9.19394 4.03827 16.9306C3.98125 24.6406 10.1638 30.8825 17.9611 30.982C25.5813 31.0876 31.9482 24.7352 31.9822 17.007Z" fill="#0E5FA8"/>
<path d="M40.9442 8.96465H38.9715C38.9715 8.39444 38.9485 7.85577 38.9873 7.32196C39.0131 7.24103 39.0591 7.16797 39.1208 7.10962C39.1825 7.05128 39.2581 7.00954 39.3403 6.98832C39.8572 6.9495 40.3776 6.97255 40.9466 6.97255L40.9442 8.96465Z" fill="#0E5FA8"/>
<path d="M45.0267 7.0029H46.9836V8.96224H45.0267V7.0029Z" fill="#0E5FA8"/>
<path d="M51.0065 8.94766V7.01987H52.9622V8.94766H51.0065Z" fill="#0E5FA8"/>
<path d="M26.9922 27.0015H9.0536C9.02763 26.8448 9.00982 26.6869 9.00021 26.5283C9.00021 24.9148 8.9893 23.3012 9.00021 21.6876C9.01235 20.0025 9.71601 19.0331 11.3175 18.4884C12.345 18.1378 13.3799 17.8054 14.4087 17.4644C14.9838 17.274 15.258 16.227 14.7957 15.8278C13.3714 14.6061 12.925 13.0374 12.9868 11.231C13.0305 9.94009 12.9868 8.66622 13.6771 7.48213C14.2147 6.57462 15.0229 5.85822 15.9883 5.43348C16.9538 5.00875 18.028 4.897 19.0602 5.11394C21.1687 5.56768 22.8126 7.39477 22.9424 9.49727C23.0031 10.4821 23.0104 11.4695 22.9643 12.4551C22.9024 13.769 22.2788 14.8354 21.3265 15.7162C20.7198 16.2791 20.8873 17.223 21.6431 17.4754C22.6913 17.8248 23.7371 18.1827 24.7865 18.5309C26.1077 18.9688 26.9194 19.8654 26.9824 21.2582C27.0601 22.9894 27.0188 24.7255 27.0261 26.4604C27.0261 26.6181 27.0055 26.7758 26.9922 27.0015ZM17.0135 16.9755C16.997 17.3369 16.9995 17.699 17.0208 18.0601C17.0741 18.5527 16.9116 18.7881 16.4081 18.9446C14.9086 19.3983 13.4199 19.8909 11.9532 20.4356C11.6062 20.5642 11.1282 20.9379 11.1039 21.229C11.0093 22.4617 11.0639 23.7052 11.0639 24.9293H25.0001C25.0001 23.852 25.0001 22.8256 25.0001 21.7992C25.0001 20.9354 24.8011 20.6637 23.9785 20.3895C22.4741 19.8884 20.9698 19.3862 19.4593 18.9009C19.1075 18.7881 18.9219 18.6303 18.9607 18.2251C18.9995 17.8199 18.9692 17.3965 18.9692 16.9755H17.0135ZM15.002 10.9653H15.0614C15.0614 11.4287 15.0287 11.8934 15.0614 12.3532C15.1827 13.7556 16.3559 14.8657 17.7802 14.947C19.2955 15.0332 20.681 14.0856 20.8642 12.6504C21.0025 11.5544 21.0025 10.4453 20.8642 9.34926C20.6798 7.90068 19.287 6.9653 17.7232 7.04416C16.3741 7.11574 15.1755 8.26707 15.0541 9.63558C15.025 10.0784 15.0226 10.5224 15.002 10.9653Z" fill="#0E5FA8"/>
</svg>
