<svg width="65" height="64" viewBox="0 0 65 64" fill="none" xmlns="http://www.w3.org/2000/svg">
<path d="M44.026 0C45.7221 0.702758 45.7597 2.15212 45.6132 3.70044C46.6917 3.87081 47.8354 3.47872 48.7236 4.36437C49.6117 5.25002 49.3211 6.37744 49.4151 7.49609C49.9262 7.49609 50.4172 7.49609 50.9108 7.49609C51.4906 7.48703 52.0504 7.70821 52.4674 8.11115C52.8844 8.51409 53.1247 9.06592 53.1356 9.6457C53.1456 9.85365 53.1356 10.0628 53.1356 10.272C53.1356 21.1696 53.1301 32.068 53.1193 42.9672C53.1193 43.5597 53.2859 43.8328 53.8471 43.9406C56.0844 44.3715 56.9788 45.4225 56.8084 47.9842C56.7909 48.2536 56.8147 48.5266 56.7909 48.796C56.7433 49.3447 56.37 49.7104 55.8764 49.7205C55.623 49.7186 55.3804 49.6179 55.2 49.4399C55.0196 49.2619 54.9158 49.0205 54.9106 48.7672C54.8831 48.2273 54.8856 47.6836 54.9106 47.1387C54.9357 46.5036 54.6789 46.1303 54.0438 45.9712C51.2453 45.2697 48.9416 43.8078 47.1765 41.5016C46.5051 40.6247 45.3852 40.6084 44.715 41.4778C42.9149 43.8128 40.5811 45.2972 37.7338 45.9874C37.2703 46.1014 36.9608 46.3833 36.9684 46.8468C37.0072 49.5288 36.8293 52.2459 37.1938 54.8865C37.7613 59.0079 41.5482 62.0269 45.761 62.1283C49.8949 62.2248 53.7043 59.2985 54.6413 55.2849C54.7745 54.6345 54.8583 53.975 54.8918 53.3119C54.9457 52.6192 55.3115 52.1632 55.8764 52.1745C56.4414 52.1857 56.8009 52.633 56.7947 53.3495C56.7571 58.602 52.7234 63.2182 47.5223 63.8871C42.9374 64.4746 39.351 62.7597 36.7604 58.9565C36.5324 58.6258 36.3132 58.5006 35.9136 58.5006C29.9157 58.5131 23.9187 58.516 17.9225 58.5093C16.3792 58.5093 15.5261 57.6738 15.501 56.1292C15.4935 55.6958 15.501 55.2624 15.501 54.7913C14.4099 54.6535 13.2687 55.0168 12.3843 54.1262C11.5 53.2355 11.8532 52.0956 11.7104 51.0032C11.1843 51.0032 10.6882 51.0032 10.1934 51.0032C9.63661 51.0126 9.09804 50.8048 8.69185 50.4239C8.28566 50.043 8.04378 49.5188 8.01748 48.9626C8.00245 48.7296 8.00245 48.5054 8.00245 48.2761C8.00245 36.4424 8.00245 24.6095 8.00245 12.7774C7.99573 12.5484 8.00284 12.3191 8.02374 12.0909C8.08512 11.5874 8.37825 11.2955 8.87933 11.2579C9.41924 11.2178 9.74619 11.5084 9.87396 12.0095C9.91237 12.2354 9.92247 12.4651 9.90403 12.6935C9.90403 24.5063 9.90403 36.3196 9.90403 48.1333C9.90403 49.1355 9.90403 49.1355 10.8774 49.1355H11.7542V48.2824C11.7542 34.3441 11.7576 20.4055 11.7643 6.46638C11.7643 5.9653 11.8081 5.4041 12.0148 4.95313C12.3994 4.1013 13.1422 3.74554 14.0905 3.74554C23.7053 3.75389 33.3226 3.75807 42.9424 3.75807H43.7329C43.7329 3.23695 43.7755 2.77596 43.7103 2.33251C43.6865 2.16339 43.4297 2.00806 43.2493 1.89156C43.1604 1.83519 43.0051 1.88154 42.8811 1.88154H10.7721C9.90778 1.88154 9.90653 1.88154 9.90653 2.73587C9.90653 4.3819 9.90653 6.02794 9.90653 7.67397C9.90653 8.16127 9.7299 8.60597 9.25764 8.68489C8.92943 8.74001 8.5173 8.55962 8.2129 8.36796C8.06257 8.26774 8.01497 7.91574 8.01247 7.68023C8.00245 5.86759 8.00245 4.05495 8.00245 2.24231C8.00245 1.08107 8.66512 0.415893 9.66476 0H44.026ZM47.4534 39.2442C47.4646 39.02 47.4847 38.8196 47.4847 38.6179C47.4847 27.9082 47.4847 17.1986 47.4847 6.48893C47.4847 5.63334 47.4734 5.62457 46.6078 5.62457H14.5603C13.6558 5.62457 13.6546 5.62457 13.6546 6.50145V52.0091C13.6546 52.886 13.6546 52.886 14.5001 52.886H35.0442V52.2208C35.0442 50.5122 35.0442 48.8035 35.0442 47.0948C35.0442 45.529 35.8309 44.5218 37.3655 44.1272C39.7218 43.5222 41.6735 42.3083 43.1604 40.3616C44.0047 39.2568 45.1409 38.8183 46.5138 39.015C46.8095 39.0588 47.1026 39.1578 47.4534 39.2442ZM51.0761 42.6703L51.2352 42.5451V10.2645C51.2352 10.0979 51.2803 9.90626 51.2127 9.77222C51.1338 9.61438 50.9621 9.4127 50.8168 9.39642C50.3556 9.36623 49.8932 9.36038 49.4314 9.37888C49.4154 9.45043 49.4033 9.52277 49.395 9.59559C49.395 20.0054 49.395 30.4153 49.395 40.8251C49.395 40.9804 49.4163 41.1884 49.514 41.2811C50.0201 41.7621 50.5525 42.2156 51.0761 42.6703ZM35.1457 54.8026H17.4039C17.4039 55.1546 17.4039 55.464 17.4039 55.7747C17.4039 56.6353 17.4039 56.6366 18.2632 56.6366H35.5841C35.4288 55.9852 35.2898 55.4014 35.1457 54.8026Z" fill="#0E5FA8"/>
<path d="M44.6385 54.3003C46.0879 52.6818 47.4759 51.1322 48.8626 49.5814C48.9039 49.535 48.944 49.4874 48.9879 49.4411C49.4701 48.9187 50.0301 48.8273 50.4585 49.2006C50.8869 49.5739 50.8894 50.1501 50.4197 50.6838C49.4564 51.7761 48.483 52.8609 47.5147 53.9483C46.8495 54.6936 46.1919 55.4452 45.5179 56.1831C44.958 56.7969 44.4644 56.8094 43.8681 56.2131C43.0689 55.4223 42.2755 54.6251 41.488 53.8218C40.9669 53.2894 40.9293 52.7745 41.3627 52.3473C41.7962 51.9202 42.311 51.9715 42.8384 52.4964C43.4297 53.0777 44.0109 53.6702 44.6385 54.3003Z" fill="#0E5FA8"/>
<path d="M30.5972 23.6307C35.2163 23.6307 39.8349 23.6282 44.4532 23.6232C45.0507 23.6232 45.4754 23.8073 45.6194 24.4124C45.7359 24.9035 45.3476 25.4145 44.8277 25.4947C44.7029 25.5072 44.5772 25.5101 44.4519 25.5035H16.6798C15.9282 25.5035 15.5311 25.1941 15.5123 24.599C15.505 24.4797 15.5213 24.36 15.5604 24.247C15.5994 24.1339 15.6603 24.0297 15.7397 23.9402C15.819 23.8507 15.9152 23.7777 16.0228 23.7255C16.1304 23.6733 16.2473 23.6428 16.3666 23.6357C16.532 23.6207 16.6986 23.6357 16.8677 23.6357L30.5972 23.6307Z" fill="#0E5FA8"/>
<path d="M30.526 36.6311C25.8877 36.6311 21.2482 36.6311 16.6074 36.6311C15.8257 36.6311 15.3309 36.13 15.5626 35.4786C15.6666 35.188 16.0374 34.9776 16.3217 34.7759C16.4357 34.6982 16.6462 34.7596 16.8128 34.7596C25.9875 34.7596 35.1626 34.7596 44.3381 34.7596C44.5051 34.748 44.6729 34.7518 44.8392 34.7709C45.3403 34.8611 45.6221 35.188 45.6296 35.6728C45.6384 36.1889 45.3478 36.5322 44.8217 36.6211C44.6357 36.6405 44.4483 36.6443 44.2617 36.6324L30.526 36.6311Z" fill="#0E5FA8"/>
<path d="M30.5584 27.256C34.3854 27.256 38.2136 27.2435 42.0406 27.2785C42.2257 27.2932 42.4058 27.3465 42.5691 27.4349C42.7324 27.5234 42.8754 27.6451 42.9889 27.7921C43.1329 28.0064 43.069 28.5024 42.9049 28.7429C42.7559 28.9622 42.35 29.1187 42.0556 29.1187C34.4017 29.1371 26.7469 29.1417 19.0913 29.1325C18.4099 29.1325 18.0153 28.7818 18.0103 28.2043C18.0103 27.6042 18.4074 27.261 19.1377 27.261C22.9458 27.256 26.7528 27.2543 30.5584 27.256Z" fill="#0E5FA8"/>
<path d="M30.5972 31.0065C34.4029 31.0065 38.2094 31.0065 42.0167 31.0065C42.4727 31.0065 42.8936 31.1055 43.0189 31.564C43.0991 31.8471 43.0928 32.2881 42.9237 32.4734C42.6613 32.7202 42.3167 32.8608 41.9566 32.868C38.7322 32.8956 35.5078 32.8843 32.2846 32.8843C27.8952 32.8843 23.5062 32.8843 19.1176 32.8843C18.3484 32.8843 17.915 32.4547 18.0303 31.7945C18.1342 31.1982 18.5426 31.0065 19.1163 31.0078C22.7566 31.0166 26.3957 31.0078 30.036 31.0078L30.5972 31.0065Z" fill="#0E5FA8"/>
<path d="M25.8771 14.0552C25.8796 12.8093 26.3769 11.6154 27.2596 10.7362C27.6967 10.3009 28.2153 9.9559 28.7857 9.72097C29.3561 9.48603 29.9672 9.36575 30.5841 9.36698C31.201 9.36821 31.8116 9.49094 32.381 9.72816C32.9505 9.96537 33.4677 10.3124 33.903 10.7495C34.3383 11.1866 34.6833 11.7051 34.9183 12.2756C35.1532 12.846 35.2735 13.4571 35.2722 14.074C35.2698 15.3198 34.7724 16.5137 33.8897 17.3929C33.007 18.2721 31.8111 18.7646 30.5653 18.7621C29.3194 18.7597 28.1255 18.2623 27.2463 17.3796C26.3671 16.4969 25.8746 15.301 25.8771 14.0552ZM27.7762 14.0476C27.7762 15.596 29.0489 16.8875 30.5772 16.8762C31.1328 16.8782 31.6766 16.7154 32.1398 16.4085C32.603 16.1016 32.9648 15.6643 33.1796 15.1519C33.3944 14.6394 33.4525 14.0748 33.3466 13.5294C33.2407 12.9839 32.9755 12.4821 32.5845 12.0873C32.1936 11.6924 31.6944 11.4223 31.15 11.3111C30.6056 11.1998 30.0404 11.2524 29.5259 11.4622C29.0114 11.672 28.5705 12.0295 28.2591 12.4897C27.9477 12.9499 27.7796 13.492 27.7762 14.0476Z" fill="#0E5FA8"/>
<path d="M24.2973 49.1342C21.7602 49.1342 19.2235 49.1342 16.6873 49.1342C15.9081 49.1342 15.4997 48.7972 15.5122 48.1759C15.5235 47.5809 15.9206 47.2627 16.6685 47.2627C21.7627 47.2627 26.857 47.2627 31.9513 47.2627C32.7029 47.2627 33.1589 47.631 33.1438 48.221C33.1288 48.811 32.6954 49.1354 31.9701 49.1354C29.4121 49.1363 26.8545 49.1359 24.2973 49.1342Z" fill="#0E5FA8"/>
<path d="M19.7903 11.2529C20.85 11.2529 21.9086 11.2529 22.9671 11.2529C23.5934 11.2529 24.0018 11.6287 24.0206 12.1573C24.0394 12.7135 23.6097 13.1194 22.9633 13.1219C20.8246 13.1286 18.6866 13.1286 16.5496 13.1219C15.8881 13.1219 15.496 12.7461 15.5123 12.1536C15.5286 11.5999 15.9119 11.2567 16.5521 11.2529C17.6319 11.2479 18.7117 11.2529 19.7903 11.2529Z" fill="#0E5FA8"/>
<path d="M41.4065 13.1269C40.3267 13.1269 39.2469 13.1269 38.1683 13.1269C37.5057 13.1269 37.1136 12.7511 37.1286 12.1623C37.1436 11.6062 37.5269 11.2592 38.1658 11.2579C40.3046 11.2521 42.4429 11.2521 44.5808 11.2579C45.2285 11.2579 45.6569 11.6663 45.6369 12.2225C45.6168 12.7561 45.2034 13.1219 44.5821 13.1269C43.5236 13.1332 42.465 13.1269 41.4065 13.1269Z" fill="#0E5FA8"/>
<path d="M19.7878 15.0035C20.8463 15.0035 21.9061 15.0035 22.9646 15.0035C23.6123 15.0035 24.0407 15.4118 24.0206 15.968C24.0006 16.5017 23.5872 16.8712 22.9671 16.8725C20.8292 16.8783 18.6909 16.8783 16.5521 16.8725C15.8894 16.8725 15.4973 16.4967 15.5124 15.9079C15.5274 15.353 15.9107 15.0085 16.5496 15.0035C17.6294 14.9984 18.708 15.0035 19.7878 15.0035Z" fill="#0E5FA8"/>
<path d="M41.3616 16.8775C40.3031 16.8775 39.2446 16.8775 38.186 16.8775C37.5133 16.8775 37.1213 16.5129 37.1275 15.9292C37.1338 15.3454 37.5284 15.0085 38.2111 15.006C40.3281 15.006 42.4456 15.006 44.5635 15.006C45.2161 15.006 45.6471 15.3993 45.6383 15.953C45.6295 16.5067 45.2036 16.8725 44.5384 16.8762C43.4799 16.8825 42.4201 16.8775 41.3616 16.8775Z" fill="#0E5FA8"/>
<path d="M17.4365 43.5146C17.4365 43.8454 17.4578 44.1786 17.4365 44.508C17.3927 45.0329 17.0933 45.3386 16.5596 45.3786C16.4403 45.3921 16.3195 45.3813 16.2045 45.3469C16.0894 45.3125 15.9826 45.2552 15.8902 45.1785C15.7979 45.1017 15.7221 45.0071 15.6672 44.9003C15.6124 44.7934 15.5798 44.6766 15.5712 44.5569C15.5243 43.8541 15.5243 43.1489 15.5712 42.4461C15.5816 42.3263 15.616 42.2098 15.6725 42.1037C15.729 41.9975 15.8064 41.9039 15.9 41.8284C15.9937 41.753 16.1016 41.6972 16.2173 41.6645C16.333 41.6318 16.4541 41.6228 16.5734 41.6381C17.1033 41.6845 17.3964 41.9964 17.4352 42.5213C17.4578 42.8507 17.4377 43.1839 17.4365 43.5146Z" fill="#0E5FA8"/>
<path d="M21.1833 43.5234C21.1833 43.8541 21.2071 44.1873 21.1833 44.5155C21.1382 45.0417 20.8338 45.3436 20.3064 45.3786C20.1869 45.3914 20.0661 45.3798 19.9512 45.3445C19.8364 45.3092 19.7299 45.251 19.6382 45.1733C19.5465 45.0957 19.4715 45.0002 19.4178 44.8928C19.364 44.7853 19.3326 44.668 19.3255 44.5481C19.2735 43.8458 19.276 43.1405 19.333 42.4386C19.3806 41.9375 19.7339 41.6268 20.2738 41.6381C20.8137 41.6494 21.1269 41.9425 21.182 42.4674C21.2002 42.8187 21.2002 43.1708 21.182 43.5222L21.1833 43.5234Z" fill="#0E5FA8"/>
<path d="M24.9276 43.5547C24.9276 43.8854 24.9526 44.2199 24.9276 44.5481C24.88 45.0492 24.5781 45.3361 24.082 45.3774C23.5471 45.4212 23.1487 45.1369 23.0949 44.6383C23.0162 43.8973 23.0132 43.1501 23.0861 42.4085C23.1337 41.9074 23.512 41.6081 24.0507 41.6394C24.5893 41.6707 24.8875 41.9738 24.9276 42.5C24.9576 42.8495 24.9338 43.2027 24.9338 43.5547H24.9276Z" fill="#0E5FA8"/>
<path d="M28.6718 43.5535C28.6718 43.8842 28.6969 44.2174 28.6718 44.5456C28.6255 45.0467 28.3248 45.3348 27.8275 45.3761C27.2939 45.4212 26.8943 45.1394 26.8391 44.6396C26.7604 43.8985 26.7575 43.1514 26.8304 42.4098C26.878 41.9087 27.255 41.6093 27.7937 41.6394C28.3323 41.6694 28.6317 41.9726 28.6706 42.4975C28.7006 42.847 28.6706 43.2015 28.6706 43.5535H28.6718Z" fill="#0E5FA8"/>
<path d="M30.5508 43.4846C30.5508 43.1739 30.5308 42.8582 30.5508 42.5526C30.5947 41.9889 30.993 41.6256 31.5229 41.6356C32.034 41.6444 32.3998 41.9813 32.4286 42.5388C32.4574 43.2002 32.4574 43.8641 32.4224 44.5256C32.3936 45.0517 32.0666 45.3486 31.5367 45.3786C31.4174 45.3877 31.2976 45.3732 31.1839 45.3359C31.0702 45.2986 30.965 45.2393 30.8743 45.1614C30.7836 45.0834 30.7091 44.9884 30.6551 44.8817C30.6011 44.7749 30.5686 44.6586 30.5596 44.5393C30.5383 44.1881 30.5358 43.836 30.5521 43.4846H30.5508Z" fill="#0E5FA8"/>
</svg>
