<svg width="65" height="64" viewBox="0 0 65 64" fill="none" xmlns="http://www.w3.org/2000/svg">
<g clip-path="url(#clip0_6_479)">
<path d="M4.67228 4H59.3296C59.8811 4.39891 59.938 4.97308 59.938 5.60349C59.9302 18.345 59.9302 31.087 59.938 43.8295V44.7123C60.9984 44.7123 61.9827 44.7045 62.9657 44.7123C63.6735 44.7202 63.9925 45.0471 63.999 45.7416C64.0662 49.6653 60.7775 53.4936 56.9141 53.8179C54.8475 53.9919 52.7537 53.9212 50.6715 53.9395C50.2659 53.9395 50.0993 54.0259 50.0127 54.4876C49.4173 57.6409 46.7835 59.9337 43.6228 59.9677C39.1329 60.0147 34.6431 59.9886 30.1532 59.982C27.9186 59.982 26.149 59.0247 24.7876 57.2446C24.0926 56.3291 23.3667 55.4436 22.686 54.5216C22.4135 54.1514 22.1112 54.0246 21.6527 54.0272C17.2274 54.0429 12.8021 54.0533 8.37681 54.0272C3.75002 54.0128 0.187575 50.6136 0.00415729 46.0791C-0.038468 45.0066 0.236659 44.7136 1.29583 44.7123H4.06777V43.7602C4.06777 31.0177 4.06562 18.2753 4.06131 5.53286C4.06131 4.92207 4.14915 4.38321 4.67228 4ZM6.14737 6.10572V44.6678H14.9308C14.7577 44.4534 14.6401 44.3069 14.52 44.1604C13.4763 42.8878 13.3769 41.1431 14.4593 39.9136C15.8414 38.3441 17.62 37.6065 19.7177 38.008C21.3569 38.3219 22.5594 39.3787 23.6108 40.6238C23.7017 40.7586 23.7771 40.9034 23.8356 41.0554L24.0074 40.9063V40.1922C24.0074 34.4087 24.0074 28.6247 24.0074 22.8403C24.0074 20.4625 25.8002 18.6367 28.04 18.6746C30.2798 18.7126 31.9977 20.5057 32.0003 22.8534C32.0003 24.8976 32.0003 26.9406 32.0003 28.9848C32.0003 29.1653 32.0197 29.3458 32.0313 29.5446C34.24 28.5571 36.0355 28.9639 37.539 30.9833C38.1008 30.581 38.7493 30.3201 39.4306 30.2223C40.112 30.1245 40.8065 30.1926 41.4566 30.4209C42.8775 30.8878 43.6951 31.942 44.031 33.4055L44.443 33.2342C47.0419 32.1212 49.819 33.722 50.0579 36.5785C50.2065 38.3494 50.1173 40.1399 50.129 41.9226C50.1354 42.8302 50.129 43.7392 50.129 44.6692H57.8713V6.10572H6.14737ZM26.1064 33.3584V43.5326C26.1064 43.7497 26.1671 44.0047 26.0767 44.1761C25.9074 44.4978 25.7021 44.902 25.4089 45.0249C25.1505 45.1361 24.6894 45.0014 24.4246 44.8183C24.1004 44.5946 23.8911 44.2035 23.6263 43.8923C22.7622 42.8734 21.9717 41.7748 21.0068 40.8632C19.7939 39.7161 18.3266 39.6377 16.969 40.425C15.6774 41.1718 15.534 41.9226 16.4407 43.1062C19.6915 47.3456 22.9409 51.5866 26.189 55.8295C27.3154 57.31 28.7414 58.0634 30.6066 58.0529C34.7516 58.0228 38.8978 58.045 43.0428 58.0398C43.4286 58.053 43.8147 58.0258 44.195 57.9587C46.6001 57.45 48.0946 55.5339 48.0997 52.9364C48.1092 47.6969 48.1092 42.4575 48.0997 37.218C48.1 36.9579 48.071 36.6986 48.0132 36.4451C47.7949 35.4969 46.861 34.8547 45.8781 34.9606C44.837 35.0718 44.1718 35.7532 44.1214 36.7812C44.0994 37.2377 44.1369 37.6967 44.1033 38.1506C44.0607 38.713 43.6977 39.0151 43.172 39.0517C42.6812 39.0857 42.2885 38.866 42.1451 38.3494C42.094 38.1398 42.0705 37.9243 42.0754 37.7085C42.0676 36.4686 42.087 35.23 42.0612 33.9915C42.0525 33.5521 41.8906 33.1299 41.6041 32.7998C41.3175 32.4697 40.9249 32.2529 40.4956 32.1879C39.5036 32.0296 38.5904 32.4821 38.2882 33.348C38.1752 33.7202 38.1207 34.1082 38.1267 34.4976C38.106 35.5191 38.1267 36.5406 38.119 37.5633C38.119 37.7582 38.1099 37.9557 38.0931 38.148C38.0402 38.7561 37.654 39.0269 37.1037 39.0635C36.5534 39.1001 36.1259 38.696 36.1156 38.0943C36.091 36.4856 36.1052 34.8769 36.0962 33.2682C36.0962 32.4154 35.8611 31.6765 35.037 31.2645C33.6472 30.57 32.1437 31.4855 32.1282 33.055C32.1114 34.686 32.1359 36.3169 32.1178 37.9465C32.1075 38.8503 31.255 39.3996 30.5846 38.8922C30.3017 38.6777 30.1041 38.1663 30.0989 37.7883C30.0615 34.7448 30.0783 31.7 30.0783 28.6565C30.0783 26.679 30.0873 24.7001 30.0783 22.7213C30.0705 21.7286 29.4027 20.9661 28.4198 20.7699C27.9828 20.6909 27.5324 20.7682 27.1456 20.9887C26.7589 21.2092 26.4599 21.5591 26.3001 21.9784C26.1716 22.3681 26.1108 22.7775 26.1206 23.1882C26.096 26.5744 26.1064 29.9657 26.1064 33.3584ZM20.6206 51.9633C20.4294 51.7017 20.3016 51.5069 20.1608 51.3264C19.1119 49.9779 18.0463 48.6426 17.0207 47.2719C16.7288 46.8795 16.4227 46.7487 15.946 46.7487C11.5647 46.7683 7.18459 46.7683 2.80451 46.7683H2.04242C2.10313 47.043 2.13413 47.2313 2.18709 47.4144C2.9776 50.161 5.41628 51.9764 8.36906 51.9921C12.2777 52.0104 16.185 51.9921 20.0923 51.9921C20.2344 51.9882 20.3752 51.9751 20.6206 51.9633ZM61.9401 46.805H50.2568V51.9162C52.3868 51.9162 54.4651 51.9725 56.537 51.8966C58.0573 51.8404 59.3218 51.0909 60.3513 49.974C61.179 49.1001 61.7319 47.9972 61.9401 46.805Z" fill="#0E5FA8"/>
<path d="M46.8287 14.4384C44.5338 14.4384 42.2389 14.4384 39.9441 14.4384C39.1355 14.4384 38.7247 14.1075 38.7054 13.4548C38.6847 12.7538 39.0838 12.3928 39.935 12.3915C44.5463 12.3863 49.1576 12.3863 53.7689 12.3915C54.717 12.3915 55.2026 12.9801 54.9521 13.7766C54.788 14.2997 54.4057 14.4436 53.9058 14.4423C51.542 14.4344 49.1873 14.4384 46.8287 14.4384Z" fill="#0E5FA8"/>
<path d="M47.831 19.4986C49.8293 19.4986 51.8262 19.4986 53.8244 19.4986C54.4005 19.4986 54.8332 19.6857 54.9753 20.3056C55.1122 20.9033 54.7996 21.3964 54.2003 21.5023C53.9669 21.5379 53.731 21.5532 53.495 21.5481C49.7363 21.5481 45.977 21.5481 42.2174 21.5481C41.144 21.5481 40.6674 21.2277 40.6751 20.5109C40.6829 19.7942 41.1234 19.4986 42.2252 19.4986C44.0938 19.4969 45.9624 19.4969 47.831 19.4986Z" fill="#0E5FA8"/>
<path d="M49.8512 28.6421C48.5182 28.6421 47.1865 28.6513 45.8547 28.6421C45.072 28.6421 44.6018 28.1674 44.6922 27.4977C44.7697 26.9288 45.0926 26.5822 45.6804 26.5822C48.4523 26.5822 51.2242 26.573 53.9949 26.5822C54.1297 26.5799 54.2637 26.6051 54.3887 26.6564C54.5137 26.7077 54.6272 26.7839 54.7224 26.8806C54.8177 26.9773 54.8927 27.0924 54.943 27.2191C54.9933 27.3458 55.0179 27.4815 55.0153 27.6181C55.0153 28.1975 54.6162 28.6199 53.982 28.6304C52.6076 28.6526 51.232 28.6304 49.8576 28.6304L49.8512 28.6421Z" fill="#0E5FA8"/>
<path d="M15.0831 26.5783C16.2185 26.5783 17.3539 26.5783 18.488 26.5783C19.1855 26.5783 19.5872 26.9392 19.6143 27.5474C19.644 28.1909 19.2397 28.6277 18.5254 28.633C16.234 28.6487 13.9426 28.6487 11.6511 28.633C10.9639 28.633 10.5984 28.2236 10.6036 27.5867C10.6087 26.9497 10.9769 26.5861 11.677 26.5796C12.8123 26.5704 13.9542 26.5783 15.0831 26.5783Z" fill="#0E5FA8"/>
<path d="M15.1555 19.4999C16.2715 19.4999 17.3875 19.4895 18.5035 19.4999C19.2153 19.5104 19.6015 19.8701 19.6157 20.4835C19.6299 21.0969 19.2579 21.5206 18.5565 21.5298C16.2599 21.5533 13.9629 21.5533 11.6654 21.5298C10.933 21.5219 10.6011 21.1557 10.6037 20.5057C10.6062 19.8557 10.9602 19.5078 11.7416 19.4986C12.8796 19.4895 14.0176 19.4999 15.1555 19.4999Z" fill="#0E5FA8"/>
<path d="M24.9775 14.7718C24.6972 15.0596 24.4608 15.4873 24.1224 15.5958C23.8163 15.6926 23.226 15.5631 23.0658 15.3251C22.3515 14.247 21.6969 13.1297 21.105 11.9782C20.8712 11.5269 21.1502 11.0875 21.5623 10.8141C21.9743 10.5408 22.4794 10.5186 22.7248 10.9031C23.4727 12.054 24.1288 13.2665 24.8173 14.4566C24.84 14.5173 24.8527 14.5814 24.8548 14.6463L24.9775 14.7718Z" fill="#0E5FA8"/>
<path d="M33.168 10.6572C34.1407 10.6572 34.6793 11.4341 34.3435 12.1129C33.8268 13.1592 33.261 14.1833 32.6733 15.1917C32.6111 15.3137 32.5241 15.4211 32.4181 15.5067C32.312 15.5923 32.1893 15.6542 32.0579 15.6884C31.9266 15.7226 31.7895 15.7283 31.6559 15.7052C31.5222 15.682 31.3948 15.6305 31.2822 15.554C31.1645 15.4887 31.0607 15.4005 30.9769 15.2943C30.8931 15.1882 30.8309 15.0663 30.7939 14.9357C30.7569 14.805 30.7458 14.6683 30.7613 14.5333C30.7769 14.3983 30.8187 14.2678 30.8843 14.1493C31.401 13.171 31.9099 12.194 32.4809 11.2523C32.6604 10.9554 33.0259 10.7749 33.168 10.6572Z" fill="#0E5FA8"/>
<path d="M28.7905 12.4281C28.7905 12.9931 28.8124 13.5594 28.784 14.1284C28.7833 14.2537 28.7583 14.3776 28.7102 14.4932C28.6622 14.6087 28.5922 14.7134 28.5041 14.8015C28.416 14.8896 28.3117 14.9592 28.1971 15.0064C28.0824 15.0536 27.9597 15.0775 27.8359 15.0766C27.3089 15.0975 26.8452 14.7562 26.8245 14.2003C26.7793 13.0232 26.7767 11.8539 26.8168 10.6821C26.8177 10.5501 26.8465 10.4199 26.9012 10.3001C26.9559 10.1804 27.0353 10.0739 27.134 9.98779C27.2328 9.90168 27.3486 9.83797 27.4736 9.80094C27.5987 9.7639 27.7302 9.7544 27.8592 9.77306C28.4146 9.83323 28.7788 10.1301 28.7905 10.7383C28.8008 11.3033 28.7905 11.8683 28.7905 12.4386V12.4281Z" fill="#0E5FA8"/>
<path d="M38.6369 54.0926C38.3152 54.0076 37.8812 54.0206 37.6978 53.8114C37.4555 53.5036 37.3303 53.1179 37.3452 52.7245C37.3723 52.2903 37.7327 52.0339 38.2067 52.0078C39.2272 51.9489 40.1985 51.7305 41.0484 51.1066C42.3026 50.1806 42.973 48.9238 43.088 47.366C43.1526 46.4728 43.4484 46.1105 44.1459 46.1405C44.8434 46.1706 45.1792 46.682 45.1172 47.5335C44.8408 51.1079 42.1825 53.7761 38.6369 54.0926Z" fill="#0E5FA8"/>
</g>
<defs>
<clipPath id="clip0_6_479">
<rect width="64" height="64" fill="white" transform="translate(0.491211)"/>
</clipPath>
</defs>
</svg>
