<svg width="65" height="64" viewBox="0 0 65 64" fill="none" xmlns="http://www.w3.org/2000/svg">
<path d="M29.3327 0H35.4035V10.3536H34.1361C34.1531 10.4376 34.1764 10.5202 34.2058 10.6005C36.2083 14.5201 38.2083 18.4415 40.2057 22.3645C40.3831 22.7136 40.6201 22.7161 40.9193 22.7161C43.427 22.7161 45.9352 22.7161 48.4438 22.7161C50.3335 22.7161 51.5971 24.0166 51.5984 25.9596C51.5984 29.8086 51.5984 33.6571 51.5984 37.5052V39.2284H57.4284C59.4638 39.2284 60.7046 40.4811 60.7046 42.5404C60.7046 46.2816 60.7046 50.0228 60.7046 53.764V55.7135C60.6704 55.7032 60.7274 55.7316 60.787 55.7368C62.6222 55.8971 63.7362 57.1252 63.74 58.9971C63.74 59.5982 63.74 60.2006 63.74 60.8069C63.7337 62.6917 62.4523 64 60.5994 64C41.776 64 22.9526 64 4.12921 64C3.83612 63.9997 3.54401 63.9654 3.2585 63.8979C2.07349 63.6031 1.46894 62.706 1 61.664V58.0443C1.41824 57.1148 1.94041 56.2745 2.94926 55.9216C3.33785 55.8075 3.73215 55.7147 4.13047 55.6437C4.09879 55.3076 4.04049 54.9896 4.04049 54.6715C4.03457 50.546 4.03457 46.4204 4.04049 42.2948C4.04049 40.5444 5.36239 39.2168 7.09238 39.2116C8.92504 39.2051 10.7577 39.2116 12.5904 39.2116H13.2418C13.2038 38.7837 13.1493 38.445 13.148 38.105C13.1429 34.0225 13.1429 29.94 13.148 25.8575C13.148 24.0154 14.4446 22.7019 16.2557 22.6993C18.6574 22.6993 21.0591 22.6877 23.4596 22.7084C23.8918 22.7084 24.1275 22.5856 24.3391 22.1835C26.3302 18.4061 28.3467 14.6429 30.3529 10.8746C30.4391 10.7117 30.5063 10.5385 30.6191 10.2903H29.3327V0ZM55.6109 57.7974H4.63617C4.4676 57.7974 4.29777 57.7974 4.12921 57.7974C3.43721 57.8388 3.05192 58.2305 3.02657 58.9441C3.00756 59.4379 3.02657 59.933 3.02657 60.4281C3.02657 61.5916 3.35229 61.9239 4.49168 61.9239H55.6109V57.7974ZM27.3213 30.9173H19.1796V24.7703C18.2265 24.7703 17.3418 24.7703 16.4572 24.7703C15.5396 24.7781 15.1682 25.1581 15.167 26.1161C15.167 30.0271 15.167 33.9376 15.167 37.8477C15.167 38.8393 15.5345 39.2181 16.4977 39.2181C21.0055 39.2181 25.5136 39.2181 30.0222 39.2181C30.9866 39.2181 31.3529 38.8393 31.3555 37.8503C31.3555 36.1103 31.3555 34.369 31.3555 32.6289C31.3555 30.4377 31.3555 28.2452 31.3555 26.054C31.3555 25.2861 31.0247 24.8169 30.3821 24.7884C29.3796 24.7445 28.3733 24.7768 27.3226 24.7768L27.3213 30.9173ZM10.0936 41.2839C9.14937 41.2839 8.24952 41.2839 7.34967 41.2839C6.44981 41.2839 6.06072 41.6717 6.06072 42.6309C6.06072 46.5419 6.06072 50.4524 6.06072 54.3626C6.06072 55.3528 6.42953 55.7316 7.39276 55.7329C11.9013 55.7329 16.4095 55.7329 20.9172 55.7329C21.8804 55.7329 22.2479 55.3528 22.2505 54.3626C22.2505 52.5799 22.2505 50.7959 22.2505 49.0132C22.2505 46.8634 22.2505 44.7148 22.2505 42.5663C22.2505 41.7997 21.9184 41.3304 21.2758 41.302C20.2733 41.258 19.267 41.2903 18.1948 41.2903V47.4283H10.0936V41.2839ZM28.3162 41.2839C27.3429 41.2839 26.4595 41.2839 25.5761 41.2839C24.6497 41.2903 24.2745 41.6717 24.2745 42.618C24.2745 46.5505 24.2745 50.4826 24.2745 54.4143C24.2745 55.3515 24.6547 55.7316 25.5926 55.7316C30.1223 55.7316 34.6515 55.7316 39.1804 55.7316C40.0676 55.7316 40.4554 55.3438 40.4617 54.4388C40.4706 53.2146 40.4617 51.9891 40.4617 50.7649C40.4617 48.0359 40.4617 45.3069 40.4617 42.5779C40.4617 41.9496 40.2551 41.3886 39.6176 41.3356C38.5619 41.2477 37.4935 41.311 36.387 41.311V47.4322H28.3162V41.2839ZM54.8644 55.7355C54.8695 55.6642 54.8656 55.5925 54.853 55.5222C52.4821 50.8795 50.1058 46.2402 47.7239 41.6045C47.6626 41.5164 47.583 41.4433 47.4908 41.3903C47.3985 41.3373 47.2959 41.3058 47.1903 41.2981C46.0104 41.2709 44.8292 41.2722 43.6492 41.289C42.9129 41.2994 42.4959 41.7027 42.4934 42.4435C42.4824 46.4854 42.4824 50.5274 42.4934 54.5694C42.4934 55.3541 42.9319 55.7329 43.7709 55.7329C45.7734 55.7393 47.7759 55.7329 49.7784 55.7329L54.8644 55.7355ZM37.4263 24.7703C36.4719 24.7703 35.6101 24.7703 34.747 24.7703C33.7331 24.7703 33.3808 25.1362 33.3808 26.1704C33.3808 30.0408 33.3808 33.9109 33.3808 37.7805C33.3808 38.8613 33.728 39.2193 34.7749 39.2206C38.4842 39.2206 42.1938 39.2206 45.9039 39.2206C46.0788 39.2206 46.255 39.1961 46.4819 39.1793C46.3386 38.8819 46.2284 38.6505 46.1181 38.4256C44.9597 36.1633 43.7823 33.91 42.6518 31.6322C42.3983 31.1268 42.1334 30.9251 41.5606 30.9471C40.2006 30.9988 38.8369 30.9639 37.4288 30.9639L37.4263 24.7703ZM26.3885 22.7019C27.5837 22.7019 28.6698 22.7304 29.7585 22.6942C30.7129 22.6618 31.6026 22.786 32.3402 23.4621C34.0892 22.106 36.1158 23.0109 38.0334 22.6231L32.3491 11.521L26.3885 22.7019ZM48.7974 39.1418C49.3665 38.9246 49.568 38.5523 49.568 38.0597C49.568 34.0169 49.568 29.9745 49.568 25.9325C49.568 25.1698 49.1371 24.7794 48.3513 24.769C46.9394 24.7587 45.5275 24.769 44.1144 24.769H41.4528L48.7974 39.1418ZM53.1243 47.4852C53.1474 47.5788 53.1766 47.6708 53.2117 47.7605C54.5108 50.3072 55.8201 52.8488 57.1052 55.4019C57.3042 55.7975 57.5754 55.7768 57.8884 55.6851C58.3954 55.5377 58.6489 55.168 58.6717 54.6418C58.6894 54.2785 58.6717 53.9127 58.6717 53.5481C58.6717 49.8983 58.6717 46.2489 58.6717 42.5999C58.6717 41.8436 58.384 41.3563 57.7909 41.3214C56.7503 41.2619 55.7047 41.3045 54.5983 41.3045V47.4852H53.1243ZM25.2415 28.8696V24.8207H21.2695V28.8709L25.2415 28.8696ZM16.1264 45.4V41.3278H12.1785V45.4H16.1264ZM30.4036 41.2981V45.3754H34.3503V41.3032L30.4036 41.2981ZM57.6755 61.9226C58.7161 61.9226 59.7034 61.9458 60.6843 61.9135C61.3028 61.8941 61.6792 61.474 61.7059 60.8263C61.7325 60.1786 61.7249 59.5336 61.7059 58.8949C61.6894 58.3378 61.4067 57.8801 60.8681 57.8452C59.8098 57.7767 58.7452 57.8258 57.6743 57.8258L57.6755 61.9226ZM31.3998 2.09166V8.20506H33.3478V2.09166H31.3998ZM52.5831 41.3291H49.9216C50.5908 42.6412 51.2118 43.8978 51.8797 45.1272C51.9773 45.3069 52.2916 45.3651 52.5857 45.5215L52.5831 41.3291ZM39.4934 25.4878V28.8696H41.2222C40.6556 27.7604 40.1183 26.7081 39.4934 25.4878Z" fill="#0E5FA8"/>
</svg>
