<svg width="65" height="64" viewBox="0 0 65 64" fill="none" xmlns="http://www.w3.org/2000/svg">
<g clip-path="url(#clip0_6_562)">
<path d="M3 35.8871C3.30327 34.8975 3.76637 34.0009 4.78693 33.6098C5.39599 33.3746 6.06798 33.3042 6.81295 33.1369C6.81295 32.9207 6.81295 32.6138 6.81295 32.3083C6.76639 29.1469 6.88594 26.0031 7.77185 22.9348C8.50595 20.3211 9.6566 17.8426 11.1796 15.5947C11.4451 15.2074 11.4313 14.9534 11.1796 14.5547C9.90106 12.4912 10.2106 9.96985 11.9623 8.30114C16.4661 4.02561 21.7653 1.29681 27.9188 0.378829C37.4084 -1.03713 45.7353 1.52568 52.883 7.90879C55.1682 9.94847 55.474 12.2988 53.862 14.9093C53.8258 14.9816 53.7939 15.0559 53.7664 15.1319C57.641 20.5392 58.8163 26.6784 58.396 33.2212C58.9082 33.2728 59.3021 33.2866 59.6871 33.3545C61.1884 33.6249 62.2429 34.8044 62.2505 36.3159C62.2731 40.184 62.2731 44.0525 62.2505 47.9215C62.2404 49.6493 60.8839 50.9307 59.146 50.9471H58.4552C58.4552 51.8952 58.4325 52.788 58.4552 53.6784C58.5231 55.923 58.1519 58.052 56.8394 59.932C55.3205 62.1112 53.258 63.453 50.6241 63.8881C50.5249 63.9154 50.4287 63.9529 50.3372 64H38.0351C37.5884 63.673 37.2549 63.2782 37.455 62.6846C37.6664 62.0559 38.1899 61.9855 38.7763 61.988C42.1438 62.0006 45.5125 61.9955 48.88 61.9943C52.7357 61.9943 55.7144 59.5962 56.2894 55.8036C56.5248 54.2518 56.3285 52.6346 56.3285 50.9471H55.7735C53.8859 50.9294 52.6086 49.6405 52.6074 47.7341C52.6074 44.0136 52.6074 40.2918 52.6074 36.5687C52.6074 34.6007 53.8658 33.3243 55.8478 33.2778C55.9925 33.2778 56.1384 33.2778 56.3121 33.2778C56.7915 27.194 55.7722 21.5113 52.1846 16.4184C51.1061 16.91 50.0226 17.1892 48.8372 16.9704C47.6782 16.7566 46.7508 16.1731 45.9039 15.3947C43.4097 13.1036 40.5293 11.4965 37.2209 10.7596C30.6105 9.27948 24.7162 10.7671 19.6033 15.2086C18.3953 16.2574 17.1457 17.1251 15.4896 17.0308C14.6943 16.9855 13.9103 16.7202 13.003 16.5278C9.49586 21.471 8.48411 27.1638 8.94594 33.2313C9.35114 33.2753 9.76641 33.2929 10.1704 33.3683C10.8679 33.4857 11.5011 33.8469 11.957 34.3875C12.4129 34.928 12.6618 35.6128 12.6595 36.3197C12.6721 40.1878 12.6721 44.0563 12.6595 47.9253C12.6595 48.3232 12.5807 48.7172 12.4278 49.0846C12.2748 49.452 12.0507 49.7855 11.7682 50.066C11.4858 50.3465 11.1506 50.5684 10.782 50.719C10.4134 50.8695 10.0186 50.9458 9.62044 50.9433C8.48788 50.9521 7.35532 50.9433 6.23157 50.9433C4.65354 50.9433 3.58893 50.151 3.11955 48.642C3.08681 48.5702 3.04675 48.5019 3 48.4383L3 35.8871ZM32.059 1.97587C31.1781 2.06641 29.6969 2.1494 28.2359 2.38078C22.4964 3.28996 17.5395 5.79492 13.3378 9.80009C12.4695 10.6288 12.2555 11.6738 12.6066 12.7967C12.9703 13.9599 13.7631 14.7019 14.9875 14.9471C16.2799 15.1986 17.2111 14.5874 18.1335 13.7851C24.0782 8.6218 30.8798 6.99459 38.507 8.99528C41.9915 9.91075 44.9701 11.7618 47.6216 14.18C48.9568 15.3985 50.8242 15.274 51.9958 13.9876C53.1674 12.7012 53.0755 10.8564 51.7517 9.62278C46.3796 4.61538 39.9969 2.12928 32.059 1.97587ZM10.6523 42.1281C10.6523 40.2884 10.6523 38.4487 10.6523 36.6102C10.6523 35.7174 10.2836 35.3527 9.39393 35.3451C8.34862 35.3342 7.30289 35.3342 6.25674 35.3451C5.42745 35.3552 5.05245 35.7023 5.04993 36.5259C5.03735 40.2674 5.03735 44.009 5.04993 47.7505C5.04993 48.5553 5.46395 48.9325 6.26555 48.9413C7.24836 48.9526 8.23243 48.9413 9.21524 48.9413C10.2912 48.9413 10.6498 48.5867 10.6511 47.5178C10.6553 45.7196 10.6557 43.923 10.6523 42.1281ZM54.6183 42.1281C54.6183 43.9679 54.6183 45.8064 54.6183 47.6461C54.6183 48.5515 55.0185 48.9363 55.9295 48.9413C56.9363 48.9472 57.9401 48.9472 58.9409 48.9413C59.7954 48.935 60.2157 48.5729 60.2182 47.7467C60.2333 44.006 60.2333 40.2645 60.2182 36.5222C60.2182 35.6985 59.8407 35.3539 59.0089 35.3439C58.0021 35.33 57.0017 35.3363 55.9975 35.3439C54.9493 35.3439 54.6133 35.6821 54.6133 36.7372C54.6141 38.5329 54.6158 40.3299 54.6183 42.1281Z" fill="#0E5FA8"/>
<path d="M43.8475 33.9053C44.3974 33.684 44.9738 33.5104 45.491 33.2288C46.2347 32.8251 46.8035 32.8817 47.1596 33.645C47.7888 34.9817 48.3589 36.3461 48.8673 37.7306C49.2033 38.6448 48.8912 39.0812 47.9436 39.3164C46.5015 39.671 45.5527 40.8254 45.5942 42.1696C45.6332 43.563 46.5594 44.6155 48.033 44.9362C48.788 45.1022 49.1857 45.5913 48.9264 46.3006C48.3778 47.802 47.7561 49.2821 47.0766 50.7295C46.7519 51.4199 46.1844 51.4425 45.4306 50.9697C44.0187 50.0831 42.3047 50.39 41.4553 51.7242C40.7984 52.7528 40.8261 53.818 41.4553 54.8592C42.0103 55.7822 41.941 56.2638 40.9884 56.7215C39.7517 57.3206 38.4845 57.8545 37.1918 58.3211C36.0719 58.721 35.6818 58.4468 35.4125 57.2849C35.2742 56.6843 34.9441 56.145 34.4721 55.7484C34.0001 55.3518 33.4117 55.1194 32.7959 55.0863C32.1801 55.0532 31.5702 55.2213 31.0584 55.565C30.5465 55.9088 30.1605 56.4096 29.9586 56.9919C29.8831 57.2069 29.8453 57.4346 29.7811 57.6546C29.5949 58.2947 29.1104 58.6606 28.5089 58.4355C26.9988 57.8621 25.4887 57.2409 24.0214 56.5568C23.357 56.2475 23.323 55.6615 23.7609 54.9598C24.6708 53.5011 24.3688 51.7896 23.0223 50.9357C21.9879 50.2768 20.9308 50.307 19.8926 50.9471C18.9803 51.5079 18.4933 51.4362 18.0327 50.4642C17.4274 49.1878 16.8926 47.8724 16.4157 46.5433C16.0721 45.5888 16.3943 45.1386 17.3746 44.9299C18.015 44.7959 18.5913 44.4498 19.0104 43.9478C19.4295 43.4457 19.6667 42.8169 19.6837 42.1634C19.7164 40.8757 18.8154 39.7188 17.5054 39.3692C16.3112 39.051 16.0507 38.6939 16.4622 37.542C16.9384 36.2326 17.4819 34.9487 18.0906 33.6953C18.487 32.8641 19.0432 32.7786 19.8398 33.2765C21.0655 34.0436 22.5013 33.9191 23.4665 32.9622C24.4317 32.0052 24.5575 30.5616 23.7924 29.338C23.2727 28.5081 23.3595 27.9736 24.2379 27.5599C25.5353 26.9475 26.8629 26.3854 28.2119 25.8962C29.1733 25.5466 29.6276 25.8799 29.8604 26.9022C30.2543 28.63 31.9997 29.6008 33.6268 28.9821C34.074 28.8267 34.4735 28.5584 34.7863 28.2032C35.0992 27.848 35.3149 27.4181 35.4125 26.955C35.6855 25.8157 36.0782 25.5403 37.1969 25.939C38.4721 26.3936 39.7233 26.9128 40.9457 27.4945C41.9423 27.9698 42.0228 28.4552 41.449 29.3959C40.8752 30.3365 40.8097 31.34 41.3358 32.3158C41.8618 33.2916 42.6948 33.7531 43.8475 33.9053ZM18.5348 37.5231C20.5483 38.4638 21.6934 39.9703 21.6808 42.152C21.6682 44.3338 20.4841 45.8139 18.5222 46.7495C18.8318 47.4738 19.1237 48.1541 19.422 48.8495C21.5046 48.095 23.3645 48.3352 24.8872 49.8631C26.4099 51.391 26.6741 53.2785 25.9015 55.3446L28.0181 56.2248C28.9732 54.2367 30.4405 53.0811 32.649 53.0811C34.8575 53.0811 36.3085 54.2656 37.2472 56.2248L39.3676 55.332C38.6 53.2609 38.8492 51.4048 40.3668 49.8757C41.902 48.3264 43.7796 48.0837 45.8647 48.8458L46.7343 46.7218C44.7209 45.7623 43.5883 44.2722 43.5883 42.1131C43.5883 39.9325 44.7511 38.4399 46.7494 37.5093C46.4335 36.7737 46.1353 36.0783 45.8459 35.4017C43.8891 36.0921 42.1361 35.9475 40.626 34.6221C38.8794 33.0778 38.5585 31.1312 39.3487 28.9092L37.2372 28.029C36.3034 30.041 34.7858 31.1903 32.6138 31.1853C30.4418 31.1803 28.9405 30.0108 28.0131 28.0227L25.9116 28.9243C26.6666 31.0155 26.4149 32.8641 24.8897 34.3932C23.3419 35.9437 21.4618 36.1298 19.4081 35.4156L18.5348 37.5231Z" fill="#0E5FA8"/>
<path d="M38.5786 42.1017C38.6013 45.3524 35.9649 48.0435 32.7371 48.0623C29.3785 48.0825 26.7421 45.5159 26.6968 42.1797C26.6848 40.5951 27.3031 39.0705 28.4158 37.9414C29.5285 36.8123 31.0444 36.171 32.6302 36.1588C35.8869 36.155 38.5535 38.8171 38.5786 42.1017ZM36.5413 42.1294C36.5413 41.0942 36.1298 40.1014 35.3972 39.3694C34.6647 38.6373 33.6712 38.2261 32.6352 38.2261C31.5993 38.2261 30.6057 38.6373 29.8732 39.3694C29.1407 40.1014 28.7291 41.0942 28.7291 42.1294C28.7291 43.1646 29.1407 44.1575 29.8732 44.8895C30.6057 45.6215 31.5993 46.0327 32.6352 46.0327C33.6712 46.0327 34.6647 45.6215 35.3972 44.8895C36.1298 44.1575 36.5413 43.1646 36.5413 42.1294Z" fill="#0E5FA8"/>
</g>
<defs>
<clipPath id="clip0_6_562">
<rect width="64" height="64" fill="white" transform="translate(0.491211)"/>
</clipPath>
</defs>
</svg>
